<svg height="512pt" viewBox="0 -60 512.00066 512" width="512pt" xmlns="http://www.w3.org/2000/svg">
    <path
        d="m116.5 122.949219c33.730469 0 61.167969-27.441407 61.167969-61.167969s-27.441407-61.164062-61.167969-61.164062-61.167969 27.4375-61.167969 61.164062c0 33.730469 27.441407 61.167969 61.167969 61.167969zm0-92.332031c17.183594 0 31.164062 13.980468 31.164062 31.164062s-13.980468 31.164062-31.164062 31.164062-31.164062-13.980468-31.164062-31.164062 13.980468-31.164062 31.164062-31.164062zm0 0"/>
    <path
        d="m207.746094 153.109375h-182.488282c-7.894531 0-15.183593 3.585937-20.003906 9.839844-4.8125 6.257812-6.417968 14.222656-4.402344 21.855469l39.285157 148.597656c9.148437 34.621094 40.550781 58.800781 76.363281 58.800781 35.808594 0 67.210938-24.179687 76.363281-58.800781l39.285157-148.597656c2.019531-7.632813.414062-15.597657-4.402344-21.851563-4.816406-6.257813-12.105469-9.84375-20-9.84375zm-43.886719 172.621094c-5.675781 21.472656-25.152344 36.46875-47.359375 36.46875s-41.683594-14.996094-47.359375-36.46875l-37.703125-142.621094h170.125zm0 0"/>
    <path
        d="m395.5 122.332031c33.730469 0 61.167969-27.4375 61.167969-61.164062 0-33.730469-27.441407-61.167969-61.167969-61.167969s-61.167969 27.441406-61.167969 61.167969c0 33.726562 27.441407 61.164062 61.167969 61.164062zm0-92.328125c17.1875 0 31.164062 13.980469 31.164062 31.164063 0 17.183593-13.980468 31.164062-31.164062 31.164062s-31.164062-13.980469-31.164062-31.164062c0-17.183594 13.980468-31.164063 31.164062-31.164063zm0 0"/>
    <path
        d="m511.148438 359.890625-39.28125-148.59375c-9.152344-34.625-40.554688-58.800781-76.367188-58.800781-35.808594 0-67.210938 24.175781-76.363281 58.796875l-39.285157 148.597656c-2.015624 7.632813-.410156 15.597656 4.40625 21.851563 4.8125 6.257812 12.105469 9.84375 20 9.84375h182.488282c7.894531 0 15.183594-3.585938 20-9.839844 4.8125-6.257813 6.421875-14.222656 4.402344-21.855469zm-200.710938 1.691406 37.703125-142.621093c5.675781-21.46875 25.152344-36.464844 47.359375-36.464844s41.683594 14.996094 47.359375 36.464844l37.703125 142.621093zm0 0"/>
</svg>
