<?xml version="1.0" encoding="UTF-8" standalone="no"?>
<svg
   height="512pt"
   viewBox="0 -60 512.00066 512"
   width="512pt"
   version="1.1"
   id="svg10"
   xmlns="http://www.w3.org/2000/svg"
   xmlns:svg="http://www.w3.org/2000/svg">
  <defs
     id="defs14" />
  <g id="g913"
     transform="matrix(1.3075052,0,0,1.3075052,103.67441,-60.807305)">
    <path
       d="m 116.5,122.94922 c 33.73047,0 61.16797,-27.441408 61.16797,-61.16797 0,-33.726562 -27.44141,-61.164062 -61.16797,-61.164062 -33.726562,0 -61.167969,27.4375 -61.167969,61.164062 0,33.730469 27.441407,61.16797 61.167969,61.16797 z m 0,-92.332032 c 17.18359,0 31.16406,13.980468 31.16406,31.164062 0,17.183594 -13.98047,31.164062 -31.16406,31.164062 -17.183594,0 -31.164062,-13.980468 -31.164062,-31.164062 0,-17.183594 13.980468,-31.164062 31.164062,-31.164062 z m 0,0"
       id="path2" />
    <path
       d="M 207.74609,153.10937 H 25.257812 c -7.894531,0 -15.183593,3.58594 -20.003906,9.83985 -4.8125,6.25781 -6.417968,14.22265 -4.402344,21.85547 l 39.285157,148.59765 c 9.148437,34.6211 40.550781,58.80078 76.363281,58.80078 35.80859,0 67.21094,-24.17968 76.36328,-58.80078 l 39.28516,-148.59765 c 2.01953,-7.63282 0.41406,-15.59766 -4.40235,-21.85157 -4.8164,-6.25781 -12.10547,-9.84375 -20,-9.84375 z m -43.88672,172.6211 c -5.67578,21.47265 -25.15234,36.46875 -47.35937,36.46875 -22.207031,0 -41.683594,-14.9961 -47.359375,-36.46875 L 31.4375,183.10937 h 170.125 z m 0,0"
       id="path4" />
  </g>
</svg>
