<?xml version="1.0" encoding="UTF-8" standalone="no"?>
<svg
   viewBox="0 -60 512.00066 512"
   version="1.1"
   id="svg10"
   xmlns="http://www.w3.org/2000/svg">
  <defs id="defs14" />
  <g id="g833"
     transform="matrix(1.3075052,0,0,1.3075052,-261.11916,-60.000334)">
    <path
       d="m 395.5,122.33203 c 33.73047,0 61.16797,-27.437499 61.16797,-61.164061 C 456.66797,27.4375 429.22656,0 395.5,0 c -33.72656,0 -61.16797,27.441406 -61.16797,61.167969 0,33.726562 27.44141,61.164061 61.16797,61.164061 z m 0,-92.328124 c 17.1875,0 31.16406,13.980469 31.16406,31.164063 0,17.183593 -13.98047,31.164062 -31.16406,31.164062 -17.18359,0 -31.16406,-13.980469 -31.16406,-31.164062 0,-17.183594 13.98047,-31.164063 31.16406,-31.164063 z m 0,0"
       id="path6" />
    <path
       d="M 511.14844,359.89062 471.86719,211.29687 c -9.15235,-34.625 -40.55469,-58.80078 -76.36719,-58.80078 -35.80859,0 -67.21094,24.17578 -76.36328,58.79688 l -39.28516,148.59765 c -2.01562,7.63282 -0.41015,15.59766 4.40625,21.85157 4.8125,6.25781 12.10547,9.84375 20,9.84375 h 182.48828 c 7.89453,0 15.1836,-3.58594 20,-9.83985 4.8125,-6.25781 6.42188,-14.22265 4.40235,-21.85547 z m -200.71094,1.69141 37.70312,-142.62109 c 5.67579,-21.46875 25.15235,-36.46485 47.35938,-36.46485 22.20703,0 41.68359,14.9961 47.35937,36.46485 l 37.70313,142.62109 z m 0,0"
       id="path8" />
  </g>
</svg>
